<svg viewBox="0 0 1551 310" fill="none" xmlns="http://www.w3.org/2000/svg"><path d="M173.172 248.97L197.572 295.67L290.172 309.57C290.172 309.57 275.872 282.17 254.672 241.57L173.172 249.07V248.97Z" fill="currentColor"></path><path d="M416.072 208.57C410.272 209.77 397.872 210.67 386.972 210.67C360.972 210.67 354.572 192.17 354.572 167.37V144.07C354.572 119.27 360.972 100.77 386.972 100.77C412.972 100.77 410.272 101.67 416.072 102.87V208.47V208.57ZM447.772 75.9703C428.972 71.1703 406.272 68.0703 386.972 68.0703C338.272 68.0703 314.672 96.8703 314.672 144.07V167.37C314.672 214.57 338.272 243.37 386.972 243.37C435.672 243.37 429.072 240.37 447.772 235.47C454.772 233.67 455.972 231.87 455.972 227.27V84.0703C455.972 79.5703 454.772 77.6703 447.772 75.8703" fill="currentColor"></path><path d="M524.372 242.67H496.272C492.972 242.67 490.172 239.67 490.172 236.27V18.3695C490.172 15.0695 492.872 12.2695 496.272 12.2695H524.372C527.672 12.2695 530.172 14.9695 530.172 18.3695V236.27C530.172 239.57 527.772 242.67 524.372 242.67Z" fill="currentColor"></path><path d="M665.672 169.07C665.672 193.87 659.272 212.37 633.272 212.37C607.272 212.37 612.672 211.47 604.172 210.27V104.67C609.972 103.47 622.372 102.57 633.272 102.57C659.272 102.57 665.672 121.07 665.672 145.87V169.17V169.07ZM633.272 69.7695C613.872 69.7695 591.172 72.7695 572.472 77.6695C565.472 79.4695 564.272 81.2695 564.272 85.8695V296.57C564.272 299.87 566.972 302.57 570.372 302.57H598.272C601.572 302.57 604.372 299.87 604.372 296.57V242.97C615.572 244.47 626.172 245.07 633.472 245.07C682.172 245.07 705.772 216.27 705.772 169.07V145.77C705.772 98.5695 682.172 69.7695 633.472 69.7695" fill="currentColor"></path><path d="M770.372 242.67H742.572C739.272 242.67 736.572 239.67 736.572 236.27V77.9701C736.572 74.6701 739.272 71.8701 742.572 71.8701H770.372C773.672 71.8701 776.472 74.5701 776.472 77.9701V236.27C776.472 239.57 773.772 242.67 770.372 242.67Z" fill="currentColor"></path><path d="M771.272 49.1701H741.872C738.572 49.1701 735.472 46.4701 735.472 43.0701V16.4701C735.472 13.1701 738.472 10.3701 741.872 10.3701H771.272C774.572 10.3701 777.372 13.0701 777.372 16.4701V43.0701C777.372 46.3701 774.672 49.1701 771.272 49.1701Z" fill="currentColor"></path><path d="M895.372 242.67C888.072 243.87 872.672 245.07 859.972 245.07C829.972 245.07 812.172 234.77 812.172 199.67V47.0699C812.172 43.7699 814.872 41.6699 818.272 40.9699L846.372 36.1699H847.272C849.972 36.1699 852.372 39.1699 852.372 42.2699V71.9699H895.072C898.372 71.9699 901.172 74.6699 901.172 78.0699V95.9699C901.172 99.2699 898.472 102.07 895.072 102.07H852.372V199.87C852.372 211.97 857.772 214.07 870.872 214.07H894.772C898.672 214.07 901.172 215.57 901.172 218.57V237.37C901.172 240.37 899.372 242.17 895.372 242.77" fill="currentColor"></path><path d="M994.972 103.37C984.972 103.37 972.572 103.97 965.272 105.47V236.27C965.272 239.57 962.872 242.67 959.572 242.67H931.472C928.172 242.67 925.372 239.67 925.372 236.27V87.6695C925.372 83.7695 928.072 80.3695 933.572 78.5695C952.972 72.1695 968.972 69.7695 994.972 69.7695C1020.97 69.7695 1003.77 70.3695 1003.77 74.8695V97.8695C1003.77 101.17 1001.97 103.27 994.972 103.27" fill="currentColor"></path><path d="M1120.77 169.67C1120.77 194.47 1109.57 210.57 1088.37 210.57C1067.17 210.57 1055.97 194.57 1055.97 169.67V145.17C1055.97 120.37 1067.17 104.27 1088.37 104.27C1109.57 104.27 1120.77 120.27 1120.77 145.17V169.67ZM1088.37 69.7695C1040.87 69.7695 1016.07 101.87 1016.07 145.17V169.67C1016.07 212.97 1040.87 245.07 1088.37 245.07C1135.87 245.07 1160.67 212.97 1160.67 169.67V145.17C1160.67 101.87 1135.87 69.7695 1088.37 69.7695Z" fill="currentColor"></path><path d="M1323.87 242.67H1295.47C1292.17 242.67 1289.67 239.67 1289.67 236.27V131.57C1289.67 116.77 1286.67 103.07 1269.07 103.07H1250.27C1232.67 103.07 1229.67 116.67 1229.67 131.57V236.27C1229.67 239.57 1227.27 242.67 1223.87 242.67H1195.47C1192.17 242.67 1189.67 239.67 1189.67 236.27V131.57C1189.67 94.9701 1210.87 69.8701 1250.17 69.8701H1268.97C1308.27 69.8701 1329.47 94.9701 1329.47 131.57V236.27C1329.47 239.57 1327.07 242.67 1323.67 242.67" fill="currentColor"></path><path d="M1398.47 242.67H1370.57C1367.27 242.67 1364.47 239.67 1364.47 236.27V77.9701C1364.47 74.6701 1367.17 71.8701 1370.57 71.8701H1398.47C1401.77 71.8701 1404.57 74.5701 1404.57 77.9701V236.27C1404.57 239.57 1401.87 242.67 1398.47 242.67Z" fill="currentColor"></path><path d="M1399.37 49.1701H1369.97C1366.67 49.1701 1363.57 46.4701 1363.57 43.0701V16.4701C1363.57 13.1701 1366.57 10.3701 1369.97 10.3701H1399.37C1402.67 10.3701 1405.47 13.0701 1405.47 16.4701V43.0701C1405.47 46.3701 1402.77 49.1701 1399.37 49.1701Z" fill="currentColor"></path><path d="M1543.67 241.07C1536.67 242.87 1523.07 244.97 1504.67 244.97C1465.27 244.97 1435.67 220.77 1435.67 171.37V143.27C1435.67 93.9699 1465.37 69.6699 1504.67 69.6699C1543.97 69.6699 1536.77 71.7699 1543.67 73.5699C1548.77 74.7699 1550.07 76.5699 1550.07 81.4699V101.17C1550.07 104.17 1547.67 105.67 1544.67 105.67H1543.77C1531.67 104.17 1524.37 103.57 1504.77 103.57C1485.17 103.57 1475.67 111.77 1475.67 143.27V171.37C1475.67 202.87 1490.47 211.07 1504.77 211.07C1519.07 211.07 1531.67 210.47 1543.77 208.97H1544.67C1547.67 208.97 1550.07 210.47 1550.07 213.47V233.17C1550.07 237.97 1548.87 239.87 1543.67 241.07Z" fill="currentColor"></path><path d="M83.4722 110.37C86.7722 103.07 95.8722 100.97 100.272 109.27C105.272 118.77 144.472 193.87 163.672 230.77L244.372 222.07C202.072 140.87 143.372 28.47 134.372 11.47C124.972 -6.33003 105.672 -1.73001 98.5722 13.77C81.8722 49.97 15.5722 202.77 6.27218 223.47C3.37218 229.97 -15.5278 265.27 30.6722 270.67L182.372 293.27L159.672 250.17C149.372 251.17 106.272 255.67 69.3722 256.87C46.0722 257.57 27.6722 258.47 20.3722 248.37C17.0722 243.87 19.4722 236.87 24.1722 227.37C41.3722 192.37 78.7722 119.17 83.5722 110.27" fill="currentColor"></path></svg>