<?xml version="1.0" encoding="UTF-8"?><svg id="Ebene_2" xmlns="http://www.w3.org/2000/svg" viewBox="0 0 280.83 94.95"><defs><style>.cls-1{fill:#fff;}</style></defs><g id="logo"><path class="cls-1" d="m0,90.49v-11.69c2.55,2.67,5.19,4.68,7.91,6.02,2.72,1.34,5.54,2.01,8.45,2.01,4.01,0,6.81-1.23,8.39-3.69s2.38-7.04,2.38-13.75V27.98H11.1v-8.42h24.52v49.83c0,9.31-1.48,15.9-4.44,19.76-2.96,3.86-7.9,5.8-14.83,5.8-2.69,0-5.37-.36-8.03-1.09s-5.44-1.85-8.33-3.37Z"/><path class="cls-1" d="m46.66,19.56h37.27v8.58h-28.77v20.3h27.51v8.58h-27.51v29.33h29.57v8.58h-38.07V19.56Z"/><polygon class="cls-1" points="167.07 94.11 167.07 94.91 139.94 94.91 139.91 94.8 137.67 86.72 134.49 75.25 118.51 75.25 121.34 67.06 132.12 67.06 130.08 59.59 125.51 42.87 121.56 28.41 111.02 67.06 108.59 75.25 105.47 86.72 122.49 86.72 120.26 94.91 92.89 94.91 95.35 86.72 115.52 19.41 115.53 19.38 121.44 0 127.53 19.38 130.1 27.55 134.67 42.78 141.94 67.06 145.91 67.06 148.67 75.25 144.39 75.25 147.84 86.72 154.69 86.72 151.51 75.25 149.14 67.06 136.12 19.41 144.68 19.41 164.85 86.72 167.07 94.11"/><path class="cls-1" d="m186.6,44.1l.85-.99c.55.79,1.27,1.21,2.13,1.21,1.15,0,1.75-.7,1.75-2.07v-5.74h-3.69v-1.27h5.14v6.93c0,2.28-1.11,3.4-3.2,3.4-1.21,0-2.32-.53-2.98-1.47Z"/><path class="cls-1" d="m195.66,41.05v-5.81h1.46v5.75c0,2.26,1.04,3.28,2.88,3.28s2.89-1.02,2.89-3.28v-5.75h1.42v5.81c0,2.96-1.62,4.52-4.32,4.52s-4.32-1.56-4.32-4.52Z"/><path class="cls-1" d="m216.08,35.24v10.22h-1.2l-6.13-7.62v7.62h-1.46v-10.22h1.2l6.13,7.62v-7.62h1.46Z"/><path class="cls-1" d="m219.14,35.24h1.46v10.22h-1.46v-10.22Z"/><path class="cls-1" d="m222.83,40.35c0-2.99,2.31-5.23,5.44-5.23s5.41,2.22,5.41,5.23-2.31,5.23-5.41,5.23-5.44-2.23-5.44-5.23Zm9.4,0c0-2.26-1.69-3.93-3.95-3.93s-3.98,1.66-3.98,3.93,1.69,3.93,3.98,3.93,3.95-1.66,3.95-3.93Z"/><path class="cls-1" d="m242.74,45.46l-2.2-3.14c-.2.01-.42.03-.64.03h-2.53v3.11h-1.46v-10.22h3.98c2.66,0,4.26,1.34,4.26,3.56,0,1.58-.82,2.72-2.25,3.23l2.42,3.43h-1.59Zm-.04-6.66c0-1.46-.98-2.29-2.85-2.29h-2.48v4.6h2.48c1.87,0,2.85-.85,2.85-2.31Z"/><path class="cls-1" d="m195.68,61.7v1.27h-7.41v-10.22h7.21v1.27h-5.75v3.14h5.12v1.24h-5.12v3.3h5.95Z"/><path class="cls-1" d="m206.83,52.75v10.22h-1.2l-6.13-7.62v7.62h-1.46v-10.22h1.2l6.13,7.62v-7.62h1.46Z"/><path class="cls-1" d="m211.91,54.02h-3.5v-1.27h8.45v1.27h-3.5v8.95h-1.45v-8.95Z"/><path class="cls-1" d="m225.87,61.7v1.27h-7.41v-10.22h7.21v1.27h-5.75v3.14h5.12v1.24h-5.12v3.3h5.95Z"/><path class="cls-1" d="m235.06,62.96l-2.2-3.14c-.2.01-.42.03-.64.03h-2.53v3.11h-1.46v-10.22h3.98c2.66,0,4.26,1.34,4.26,3.56,0,1.58-.82,2.72-2.25,3.23l2.42,3.43h-1.59Zm-.04-6.66c0-1.46-.98-2.29-2.85-2.29h-2.48v4.6h2.48c1.87,0,2.85-.85,2.85-2.31Z"/><path class="cls-1" d="m247.08,56.31c0,2.22-1.61,3.56-4.26,3.56h-2.53v3.09h-1.46v-10.22h3.98c2.66,0,4.26,1.34,4.26,3.56Zm-1.46,0c0-1.46-.98-2.29-2.85-2.29h-2.48v4.58h2.48c1.87,0,2.85-.83,2.85-2.29Z"/><path class="cls-1" d="m256.05,62.96l-2.2-3.14c-.2.01-.42.03-.64.03h-2.53v3.11h-1.46v-10.22h3.98c2.66,0,4.26,1.34,4.26,3.56,0,1.58-.82,2.72-2.25,3.23l2.42,3.43h-1.59Zm-.04-6.66c0-1.46-.98-2.29-2.85-2.29h-2.48v4.6h2.48c1.87,0,2.85-.85,2.85-2.31Z"/><path class="cls-1" d="m259.83,52.75h1.46v10.22h-1.46v-10.22Z"/><path class="cls-1" d="m263.42,61.8l.54-1.14c.76.69,2.06,1.18,3.37,1.18,1.77,0,2.52-.69,2.52-1.58,0-2.5-6.19-.92-6.19-4.71,0-1.58,1.23-2.92,3.91-2.92,1.2,0,2.44.32,3.29.9l-.48,1.17c-.89-.57-1.9-.83-2.8-.83-1.74,0-2.48.73-2.48,1.62,0,2.5,6.19.93,6.19,4.68,0,1.56-1.26,2.91-3.95,2.91-1.56,0-3.1-.53-3.91-1.28Z"/><path class="cls-1" d="m280.83,61.7v1.27h-7.41v-10.22h7.21v1.27h-5.75v3.14h5.12v1.24h-5.12v3.3h5.95Z"/><path class="cls-1" d="m187.33,79.31l.54-1.14c.76.69,2.06,1.18,3.37,1.18,1.77,0,2.52-.69,2.52-1.58,0-2.5-6.19-.92-6.19-4.71,0-1.58,1.23-2.92,3.91-2.92,1.2,0,2.44.32,3.29.9l-.48,1.17c-.89-.57-1.9-.83-2.8-.83-1.74,0-2.48.73-2.48,1.62,0,2.5,6.19.93,6.19,4.68,0,1.56-1.26,2.9-3.95,2.9-1.56,0-3.1-.52-3.91-1.28Z"/><path class="cls-1" d="m197.24,76.07v-5.81h1.46v5.75c0,2.26,1.04,3.28,2.88,3.28s2.89-1.02,2.89-3.28v-5.75h1.42v5.81c0,2.96-1.62,4.52-4.32,4.52s-4.32-1.56-4.32-4.52Zm2.23-7.63c0-.44.34-.76.74-.76s.74.32.74.76-.34.74-.74.74-.74-.31-.74-.74Zm2.72,0c0-.44.34-.76.74-.76s.74.32.74.76-.34.74-.74.74-.74-.31-.74-.74Z"/><path class="cls-1" d="m208.86,70.26h4.3c3.29,0,5.52,2.07,5.52,5.11s-2.23,5.11-5.52,5.11h-4.3v-10.22Zm4.22,8.95c2.53,0,4.14-1.55,4.14-3.84s-1.62-3.84-4.14-3.84h-2.76v7.68h2.76Z"/><path class="cls-1" d="m222.8,71.53h-3.5v-1.27h8.45v1.27h-3.5v8.95h-1.45v-8.95Z"/><path class="cls-1" d="m229.34,70.26h1.46v10.22h-1.46v-10.22Z"/><path class="cls-1" d="m240.69,80.47l-2.2-3.14c-.2.01-.42.03-.64.03h-2.53v3.11h-1.46v-10.22h3.98c2.65,0,4.26,1.34,4.26,3.56,0,1.58-.82,2.71-2.25,3.22l2.42,3.43h-1.59Zm-.04-6.65c0-1.46-.98-2.29-2.85-2.29h-2.48v4.6h2.48c1.87,0,2.85-.85,2.85-2.31Z"/><path class="cls-1" d="m243.63,75.37c0-2.99,2.31-5.23,5.44-5.23s5.41,2.22,5.41,5.23-2.31,5.22-5.41,5.22-5.44-2.23-5.44-5.22Zm9.4,0c0-2.26-1.69-3.93-3.95-3.93s-3.98,1.66-3.98,3.93,1.69,3.93,3.98,3.93,3.95-1.66,3.95-3.93Z"/><path class="cls-1" d="m256.72,70.26h1.46v8.95h5.53v1.27h-6.99v-10.22Z"/></g></svg>