<?xml version="1.0" encoding="UTF-8"?>
<svg id="Logo_svg" data-name="Logo svg" xmlns="http://www.w3.org/2000/svg" viewBox="0 0 1325.45 820.31">
  <path d="M662.73,716.87l-100.21-187.14-91.67-171.21-111.79-208.79L0,820.31h130.99l50.32-95.36h355.49l50.33,95.36h130.98l-55.38-103.44ZM234.8,620.16l124.26-242.06,49.58,96.6,56.03,109.15,18.64,36.31h-248.51Z"/>
  <path d="M966.4,149.73l-111.7,208.62-91.77,171.38-100.2,187.14-55.39,103.44h130.99l50.32-95.36h355.49l50.33,95.36h130.98L966.4,149.73ZM842.14,620.16l18.64-36.31,56.12-109.33,49.5-96.42,124.25,242.06h-248.51Z"/>
  <path d="M470.85,358.52l-62.21,116.18-58.44,109.15h129.22l29.41-54.12h53.69l-91.67-171.21ZM916.9,474.52l-62.2-116.17-91.77,171.38h55.41l26.95,54.12h130.15l-58.54-109.33ZM662.82,0l-162.97,313.69,112.49,216.04h101.77l112.68-216.03L662.82,0ZM558.04,425.81l67.96-127.93,36.82-69.3,37.69,69.3,68.51,125.95-210.98,1.98Z"/>
</svg>